# xmcd
#
# Track frame offsets: 
#        150
#        7707
#        34095
#        57682
#        81591
#        113308
#        120837
#        140698
#        163930
#        201989
#        224841
#        249651
#
# Disc length: 3659 seconds
#
# Revision: 0
# Processed by: cddbd v1.5.2PL0 Copyright (c) Steve Scherf et al.
# Submitted via: ExactAudioCopy v0.95b4
#
DISCID=ac0e490c
DTITLE=Butterfly Temple - Following the Sun
DYEAR=2006
DGENRE=Pagan Folk Metal
TTITLE0=Iskorosten
TTITLE1=The Great Paths of Evermore
TTITLE2=The Vedas of Spring
TTITLE3=A Glimpse of Freedom
TTITLE4=Unquenchable Shining of Rus
TTITLE5=Hand of Khors
TTITLE6=Forerunners of Fire
TTITLE7=Sacred Gifts of the Gods of Light
TTITLE8=Dark Wells of Nav
TTITLE9=Following the Sun
TTITLE10=Onwards to the Halls of Rod
TTITLE11=A Child And A Shaman (bonus)
EXTD=
EXTT0=
EXTT1=
EXTT2=
EXTT3=
EXTT4=
EXTT5=
EXTT6=
EXTT7=
EXTT8=
EXTT9=
EXTT10=
EXTT11=
PLAYORDER=
